<svg width="75" height="75" viewBox="0 0 75 75" fill="none" xmlns="http://www.w3.org/2000/svg">
<g clip-path="url(#clip0_280_49)">
<path d="M35.7293 27.2192C36.7166 23.3642 37.2103 21.4367 38.6081 21.0562C40.0059 20.6757 41.3819 22.0945 44.1343 24.9319L44.8464 25.6658C45.6286 26.472 46.0196 26.8752 46.5166 27.0762C47.0135 27.277 47.5602 27.2531 48.6534 27.2051L49.6485 27.1616C53.4958 26.9929 55.4193 26.9086 56.2168 28.1767C57.0141 29.4447 56.1572 31.2255 54.4434 34.7865L54.0001 35.708C53.513 36.72 53.2694 37.2259 53.2451 37.7765C53.2209 38.3273 53.4184 38.8602 53.8133 39.926L54.1731 40.8963C55.5633 44.6473 56.2585 46.5226 55.3536 47.6868C54.4487 48.8509 52.5428 48.5328 48.7313 47.8965L47.7452 47.7317C46.6621 47.5509 46.1206 47.4607 45.6084 47.5999C45.0965 47.7392 44.672 48.0926 43.8228 48.7994L43.0499 49.4427C40.0621 51.9295 38.568 53.1728 37.2115 52.6243C35.8548 52.0756 35.5338 50.0983 34.8921 46.1439L34.7259 45.1207C34.5436 43.997 34.4524 43.4352 34.1603 42.9706C33.8683 42.5062 33.4083 42.1916 32.4885 41.5624L31.6511 40.9898C28.4141 38.7758 26.7957 37.6688 26.8622 36.1657C26.9287 34.6625 28.6362 33.7586 32.0509 31.9509L32.9345 31.4831C33.9049 30.9695 34.39 30.7126 34.7216 30.2862C35.0531 29.8597 35.1934 29.312 35.4739 28.2165L35.7293 27.2192Z" fill="#9747FF"/>
<path fill-rule="evenodd" clip-rule="evenodd" d="M17.0821 26.5459C17.0821 25.6312 17.8236 24.8896 18.7383 24.8897L24.9844 24.8897C25.8991 24.8897 26.6406 25.6312 26.6406 26.5459C26.6406 27.4606 25.8992 28.2021 24.9845 28.2021L18.7383 28.2021C17.8236 28.2021 17.0821 27.4606 17.0821 26.5459ZM10.8359 37.4766C10.8359 36.5618 11.5775 35.8203 12.4922 35.8203L20.2998 35.8203C21.2145 35.8203 21.9561 36.5618 21.9561 37.4766C21.9561 38.3913 21.2145 39.1328 20.2998 39.1328L12.4922 39.1328C11.5775 39.1328 10.8359 38.3913 10.8359 37.4766ZM28.0128 26.5458C28.0128 25.6311 28.7542 24.8897 29.669 24.8897L31.2305 24.8897C32.1452 24.8897 32.8867 25.6312 32.8867 26.5459C32.8867 27.4606 32.1453 28.2021 31.2306 28.2021L29.669 28.2021C28.7543 28.2021 28.0128 27.4606 28.0128 26.5458ZM13.959 46.8457C13.959 45.931 14.7005 45.1895 15.6153 45.1895L17.1768 45.1895C18.0915 45.1895 18.833 45.931 18.833 46.8457C18.833 47.7604 18.0915 48.502 17.1768 48.502L15.6153 48.502C14.7005 48.502 13.959 47.7604 13.959 46.8457ZM21.7666 46.8457C21.7666 45.931 22.5082 45.1895 23.4229 45.1895L28.1075 45.1895C29.0222 45.1895 29.7637 45.931 29.7637 46.8457C29.7637 47.7604 29.0222 48.5019 28.1074 48.5019L23.4228 48.5019C22.5081 48.5019 21.7667 47.7605 21.7666 46.8457Z" fill="#9747FF"/>
</g>
<defs>
<clipPath id="clip0_280_49">
<rect width="53" height="53" fill="white" transform="translate(0 37.4766) rotate(-45)"/>
</clipPath>
</defs>
</svg>
